<svg width="537" height="214" viewBox="0 0 537 214" fill="none" xmlns="http://www.w3.org/2000/svg">
<path d="M277.754 94.304C279.777 94.304 281.923 94.082 284.192 93.638C286.511 93.194 288.583 92.602 290.408 91.862V99.78C287.695 100.865 285.253 101.605 283.082 102C280.961 102.444 278.741 102.666 276.422 102.666C269.071 102.666 263.941 100.841 261.03 97.19C258.119 93.49 256.664 87.3233 256.664 78.69C256.664 70.4513 258.391 64.4327 261.844 60.634C265.297 56.786 270.847 54.862 278.494 54.862C280.763 54.862 282.786 54.9113 284.562 55.01C286.338 55.1087 287.941 55.2813 289.372 55.528V63.298C287.497 63.15 285.672 63.0513 283.896 63.002C282.169 62.9033 280.369 62.854 278.494 62.854C273.511 62.854 270.132 64.0133 268.356 66.332C266.629 68.6507 265.766 72.77 265.766 78.69C265.766 84.61 266.555 88.7047 268.134 90.974C269.762 93.194 272.969 94.304 277.754 94.304ZM336.792 78.69C336.792 87.126 335.115 93.2433 331.76 97.042C328.455 100.791 323.053 102.666 315.554 102.666C307.562 102.666 302.012 100.915 298.904 97.412C295.796 93.86 294.242 87.6193 294.242 78.69C294.242 70.3033 295.919 64.2353 299.274 60.486C302.629 56.7367 308.055 54.862 315.554 54.862C323.497 54.862 329.022 56.638 332.13 60.19C335.238 63.6927 336.792 69.8593 336.792 78.69ZM305.046 90.382C305.835 91.8127 306.995 92.824 308.524 93.416C310.053 94.008 312.397 94.304 315.554 94.304C320.438 94.304 323.694 93.2187 325.322 91.048C326.95 88.828 327.764 84.7087 327.764 78.69C327.764 75.7793 327.616 73.3867 327.32 71.512C327.073 69.6373 326.629 68.108 325.988 66.924C325.199 65.444 324.039 64.408 322.51 63.816C320.981 63.1747 318.662 62.854 315.554 62.854C310.621 62.854 307.34 63.964 305.712 66.184C304.084 68.404 303.27 72.5727 303.27 78.69C303.27 81.6007 303.418 83.9933 303.714 85.868C304.01 87.7427 304.454 89.2473 305.046 90.382ZM355.208 102L338.484 55.602H348.4L357.132 81.724C357.576 83.056 358.094 84.8567 358.686 87.126C359.327 89.346 359.993 91.862 360.684 94.674C361.374 91.8127 362.016 89.272 362.608 87.052C363.249 84.832 363.767 83.0807 364.162 81.798L372.894 55.602H382.514L365.79 102H355.208ZM396.025 55.602V102H387.145V55.602H396.025ZM419.796 102H404.922V55.602H419.796C424.532 55.602 428.282 55.9967 431.044 56.786C433.856 57.5753 436.101 58.8333 437.778 60.56C439.456 62.2867 440.664 64.63 441.404 67.59C442.194 70.5007 442.588 74.2253 442.588 78.764C442.588 86.8053 440.788 92.7007 437.186 96.45C433.585 100.15 427.788 102 419.796 102ZM430.97 66.998C430.033 65.7647 428.726 64.9013 427.048 64.408C425.371 63.8653 422.954 63.594 419.796 63.594H413.802V93.638H419.796C425.124 93.638 428.726 92.5527 430.6 90.382C432.475 88.2113 433.412 84.3387 433.412 78.764C433.412 75.804 433.215 73.3867 432.82 71.512C432.426 69.6373 431.809 68.1327 430.97 66.998ZM472.005 75.138V81.724H448.399V75.138H472.005ZM493.718 102H484.838V63.372L472.48 64.926V57.378L493.718 54.862V102ZM516.969 54.862C523.235 54.862 527.576 56.5393 529.993 59.894C532.46 63.1993 533.693 69.07 533.693 77.506C533.693 86.2873 531.991 92.676 528.587 96.672C525.233 100.668 519.88 102.666 512.529 102.666C511.247 102.666 509.865 102.592 508.385 102.444C506.905 102.345 505.82 102.222 505.129 102.074V94.304C505.968 94.4027 507.004 94.5013 508.237 94.6C509.52 94.6493 510.951 94.674 512.529 94.674C516.624 94.674 519.559 93.8107 521.335 92.084C523.111 90.308 524.197 87.2 524.591 82.76C522.717 83.7467 520.891 84.4867 519.115 84.98C517.339 85.424 515.465 85.646 513.491 85.646C509.15 85.646 505.919 84.462 503.797 82.094C501.725 79.6767 500.689 75.9767 500.689 70.994C500.689 65.9127 502.12 61.966 504.981 59.154C507.843 56.2927 511.839 54.862 516.969 54.862ZM516.969 62.706C514.453 62.706 512.554 63.372 511.271 64.704C509.989 65.9867 509.347 67.9353 509.347 70.55C509.347 73.4607 509.841 75.4833 510.827 76.618C511.863 77.7033 513.787 78.246 516.599 78.246C518.129 78.246 519.559 78.0733 520.891 77.728C522.223 77.3827 523.531 76.8153 524.813 76.026C524.764 70.7473 524.197 67.22 523.111 65.444C522.075 63.6187 520.028 62.706 516.969 62.706Z" fill="#303030"/>
<path d="M260.512 164H256.904V142.264H260.028L260.204 144.376H260.336C261.509 143.496 262.727 142.851 263.988 142.44C265.279 142.029 266.716 141.824 268.3 141.824C270.705 141.824 272.524 142.425 273.756 143.628C275.017 144.831 275.648 146.605 275.648 148.952V164H272.04V149.392C272.04 147.925 271.629 146.84 270.808 146.136C269.987 145.432 268.725 145.08 267.024 145.08C265.968 145.08 264.883 145.256 263.768 145.608C262.683 145.931 261.597 146.415 260.512 147.06V164ZM300.363 153.088C300.363 157.195 299.601 160.099 298.075 161.8C296.579 163.501 293.998 164.352 290.331 164.352C286.547 164.352 283.922 163.531 282.455 161.888C280.989 160.245 280.255 157.312 280.255 153.088C280.255 148.952 281.003 146.048 282.499 144.376C284.025 142.675 286.635 141.824 290.331 141.824C294.115 141.824 296.726 142.645 298.163 144.288C299.63 145.931 300.363 148.864 300.363 153.088ZM283.863 153.044C283.863 156.271 284.289 158.412 285.139 159.468C285.99 160.495 287.721 161.008 290.331 161.008C292.854 161.008 294.555 160.465 295.435 159.38C296.315 158.265 296.755 156.153 296.755 153.044C296.755 149.817 296.33 147.691 295.479 146.664C294.658 145.608 292.942 145.08 290.331 145.08C287.779 145.08 286.063 145.623 285.183 146.708C284.303 147.793 283.863 149.905 283.863 153.044ZM350.583 149.986C350.583 154.914 349.197 158.482 346.425 160.689C343.653 162.896 339.264 164 333.258 164H314.393V115.721H333.258C338.7 115.721 342.55 116.645 344.808 118.493C347.118 120.341 348.273 123.498 348.273 127.964C348.273 130.993 347.811 133.303 346.887 134.894C345.963 136.485 344.269 137.64 341.805 138.359C344.731 138.872 346.913 140.104 348.35 142.055C349.839 143.954 350.583 146.598 350.583 149.986ZM339.726 129.273C339.726 127.066 339.239 125.551 338.263 124.73C337.339 123.857 335.671 123.421 333.258 123.421H323.633V135.895H333.258C335.568 135.895 337.211 135.382 338.186 134.355C339.213 133.328 339.726 131.634 339.726 129.273ZM341.651 149.37C341.651 147.009 341.01 145.366 339.726 144.442C338.494 143.518 336.338 143.056 333.258 143.056H323.633V155.992H333.258C336.338 155.992 338.494 155.504 339.726 154.529C341.01 153.554 341.651 151.834 341.651 149.37ZM366.645 147.522V164H357.405V115.721H374.422C381.557 115.721 386.639 116.927 389.668 119.34C392.748 121.753 394.288 125.782 394.288 131.429C394.288 135.484 393.39 138.77 391.593 141.285C389.848 143.749 387.178 145.469 383.585 146.444L395.751 164H384.663L373.806 147.522H366.645ZM384.894 131.429C384.894 128.76 384.098 126.86 382.507 125.731C380.967 124.602 378.272 124.037 374.422 124.037H366.645V139.822H374.422C378.272 139.822 380.967 139.18 382.507 137.897C384.098 136.614 384.894 134.458 384.894 131.429ZM407.234 164H397.532L416.012 115.721H425.56L443.732 164H434.03L430.565 154.144H410.622L407.234 164ZM420.555 124.576C419.99 126.527 419.348 128.58 418.63 130.736C417.962 132.892 417.321 134.894 416.705 136.742L413.317 146.521H427.87L424.482 136.742C423.917 135.099 423.275 133.2 422.557 131.044C421.838 128.837 421.171 126.681 420.555 124.576ZM467.022 144.827L456.319 142.286C452.777 141.465 450.287 140.13 448.85 138.282C447.413 136.383 446.694 133.688 446.694 130.197C446.694 124.961 448.131 121.111 451.006 118.647C453.881 116.183 458.347 114.951 464.404 114.951C466.919 114.951 469.152 115.079 471.103 115.336C473.105 115.541 474.953 115.875 476.647 116.337V124.653C473.721 124.088 471.385 123.729 469.64 123.575C467.895 123.37 466.098 123.267 464.25 123.267C461.17 123.267 458.988 123.755 457.705 124.73C456.422 125.654 455.78 127.271 455.78 129.581C455.78 130.916 456.037 131.942 456.55 132.661C457.115 133.328 458.039 133.816 459.322 134.124L469.717 136.588C472.13 137.153 473.926 137.743 475.107 138.359C476.288 138.924 477.263 139.642 478.033 140.515C478.803 141.49 479.368 142.697 479.727 144.134C480.138 145.571 480.343 147.342 480.343 149.447C480.343 154.888 478.906 158.79 476.031 161.151C473.156 163.512 468.69 164.693 462.633 164.693C459.502 164.693 456.473 164.488 453.547 164.077C450.672 163.666 448.414 163.153 446.771 162.537V153.836C448.978 154.503 451.468 155.042 454.24 155.453C457.063 155.812 459.861 155.992 462.633 155.992C465.662 155.992 467.766 155.581 468.947 154.76C470.179 153.887 470.795 152.219 470.795 149.755C470.795 148.215 470.538 147.111 470.025 146.444C469.563 145.725 468.562 145.186 467.022 144.827ZM496.056 115.721V164H486.816V115.721H496.056ZM535.498 155.299V164H505.314V115.721H514.554V155.299H535.498Z" fill="#303030"/>
<path d="M161 90.5608C158.273 58.9316 135.217 41 103.235 41C69.0229 41 42 63.9125 42 106.5C42 148.901 68.2792 172 103.235 172C140.423 172 159.265 146.099 161 124.432L126.044 124.183C124.308 135.078 116.623 141.865 103.979 141.865C87.1828 141.865 77.4521 129.911 77.4521 106.5C77.4521 84.3346 86.8729 71.135 104.227 71.135C117.491 71.135 125.052 78.98 126.044 90.5608H161Z" fill="#FC3939" fill-opacity="0.9"/>
<path d="M141.237 30.6885C136.363 25.814 130.576 21.9474 124.207 19.3093C117.838 16.6713 111.012 15.3135 104.119 15.3135C97.225 15.3135 90.399 16.6713 84.0301 19.3093C77.6613 21.9474 71.8745 25.814 67 30.6885L73.5795 37.268C77.5899 33.2575 82.351 30.0763 87.5909 27.9058C92.8308 25.7354 98.4469 24.6183 104.119 24.6183C109.79 24.6183 115.406 25.7354 120.646 27.9058C125.886 30.0763 130.647 33.2575 134.658 37.268L141.237 30.6885Z" fill="#FC3939" fill-opacity="0.8"/>
<path d="M137.838 13.9831C133.416 9.54992 128.167 6.03332 122.389 3.63409C116.611 1.23487 110.419 -1.37024e-07 104.165 0C97.9116 1.37024e-07 91.7192 1.23487 85.9415 3.63409C80.1639 6.03332 74.9142 9.54992 70.4922 13.9831L76.461 19.967C80.0991 16.3196 84.4183 13.4263 89.1718 11.4524C93.9253 9.47843 99.0201 8.46245 104.165 8.46245C109.31 8.46245 114.405 9.47843 119.159 11.4524C123.912 13.4263 128.231 16.3196 131.87 19.967L137.838 13.9831Z" fill="#FC3939" fill-opacity="0.6"/>
<path d="M179.579 146.237C184.454 141.363 188.321 135.576 190.959 129.207C193.597 122.838 194.954 116.012 194.954 109.119C194.954 102.225 193.597 95.399 190.959 89.0301C188.321 82.6613 184.454 76.8745 179.579 72L173 78.5795C177.01 82.5899 180.192 87.351 182.362 92.5909C184.533 97.8308 185.65 103.447 185.65 109.119C185.65 114.79 184.533 120.406 182.362 125.646C180.192 130.886 177.01 135.647 173 139.658L179.579 146.237Z" fill="#FC3939" fill-opacity="0.8"/>
<path d="M196.285 142.838C200.718 138.416 204.235 133.167 206.634 127.389C209.033 121.611 210.268 115.419 210.268 109.165C210.268 102.912 209.033 96.7192 206.634 90.9415C204.235 85.1639 200.718 79.9142 196.285 75.4922L190.301 81.461C193.948 85.0991 196.842 89.4183 198.816 94.1718C200.79 98.9253 201.805 104.02 201.805 109.165C201.805 114.31 200.79 119.405 198.816 124.159C196.842 128.912 193.948 133.231 190.301 136.87L196.285 142.838Z" fill="#FC3939" fill-opacity="0.6"/>
<path d="M66.9999 182.58C71.8744 187.454 77.6613 191.321 84.0301 193.959C90.3989 196.597 97.2249 197.955 104.119 197.955C111.012 197.955 117.838 196.597 124.207 193.959C130.576 191.321 136.363 187.454 141.237 182.58L134.658 176C130.647 180.01 125.886 183.192 120.646 185.362C115.406 187.533 109.79 188.65 104.119 188.65C98.4469 188.65 92.8308 187.533 87.5909 185.362C82.351 183.192 77.5899 180.01 73.5794 176L66.9999 182.58Z" fill="#FC3939" fill-opacity="0.8"/>
<path d="M70.3987 199.285C74.8207 203.718 80.0704 207.235 85.848 209.634C91.6257 212.033 97.8181 213.268 104.072 213.268C110.325 213.268 116.518 212.033 122.296 209.634C128.073 207.235 133.323 203.718 137.745 199.285L131.776 193.301C128.138 196.948 123.819 199.842 119.065 201.816C114.312 203.79 109.217 204.806 104.072 204.806C98.9266 204.806 93.8318 203.79 89.0783 201.816C84.3248 199.842 80.0056 196.948 76.3674 193.301L70.3987 199.285Z" fill="#FC3939" fill-opacity="0.6"/>
<path d="M30.6885 69C25.814 73.8745 21.9474 79.6613 19.3093 86.0301C16.6713 92.399 15.3135 99.225 15.3135 106.119C15.3135 113.012 16.6713 119.838 19.3093 126.207C21.9474 132.576 25.814 138.363 30.6885 143.237L37.268 136.658C33.2575 132.647 30.0763 127.886 27.9058 122.646C25.7354 117.406 24.6183 111.79 24.6183 106.119C24.6183 100.447 25.7354 94.8308 27.9058 89.5909C30.0763 84.351 33.2575 79.59 37.268 75.5795L30.6885 69Z" fill="#FC3939" fill-opacity="0.8"/>
<path d="M13.9831 72.3987C9.54991 76.8207 6.03331 82.0704 3.63409 87.8481C1.23486 93.6257 -1.88228e-06 99.8182 -1.4719e-06 106.072C-1.06152e-06 112.326 1.23486 118.518 3.63409 124.296C6.03332 130.073 9.54992 135.323 13.9831 139.745L19.967 133.776C16.3196 130.138 13.4263 125.819 11.4524 121.065C9.47843 116.312 8.46245 111.217 8.46245 106.072C8.46245 100.927 9.47842 95.8319 11.4524 91.0784C13.4263 86.3248 16.3196 82.0057 19.967 78.3675L13.9831 72.3987Z" fill="#FC3939" fill-opacity="0.6"/>
</svg>
