<svg width="908" height="214" viewBox="0 0 908 214" fill="none" xmlns="http://www.w3.org/2000/svg">
<path d="M275.5 145.824C275.5 149.277 274.859 151.719 273.576 153.15C272.318 154.581 270.147 155.296 267.064 155.296C263.882 155.296 261.674 154.605 260.441 153.224C259.208 151.843 258.591 149.376 258.591 145.824C258.591 142.346 259.22 139.904 260.478 138.498C261.761 137.067 263.956 136.352 267.064 136.352C270.246 136.352 272.441 137.043 273.65 138.424C274.883 139.805 275.5 142.272 275.5 145.824ZM261.625 145.787C261.625 148.5 261.983 150.301 262.698 151.189C263.413 152.052 264.869 152.484 267.064 152.484C269.185 152.484 270.616 152.028 271.356 151.115C272.096 150.178 272.466 148.402 272.466 145.787C272.466 143.074 272.108 141.285 271.393 140.422C270.702 139.534 269.259 139.09 267.064 139.09C264.918 139.09 263.475 139.546 262.735 140.459C261.995 141.372 261.625 143.148 261.625 145.787ZM285.822 139.09C284.243 139.09 283.146 139.275 282.529 139.645C281.937 140.015 281.641 140.767 281.641 141.902C281.641 142.494 281.777 142.95 282.048 143.271C282.344 143.567 282.8 143.764 283.417 143.863L288.116 144.566C289.596 144.788 290.632 145.257 291.224 145.972C291.816 146.663 292.112 147.76 292.112 149.265C292.112 151.386 291.606 152.928 290.595 153.89C289.584 154.827 287.906 155.296 285.563 155.296C284.157 155.296 282.85 155.222 281.641 155.074C280.432 154.926 279.433 154.729 278.644 154.482V151.633C279.433 151.88 280.395 152.089 281.53 152.262C282.689 152.41 283.873 152.484 285.082 152.484C286.611 152.484 287.66 152.262 288.227 151.818C288.794 151.374 289.078 150.585 289.078 149.45C289.078 148.735 288.918 148.217 288.597 147.896C288.276 147.551 287.697 147.316 286.858 147.193L282.159 146.49C280.975 146.317 280.087 145.861 279.495 145.121C278.928 144.381 278.632 143.308 278.607 141.902C278.607 139.978 279.174 138.572 280.309 137.684C281.468 136.796 283.244 136.352 285.637 136.352C286.624 136.352 287.512 136.377 288.301 136.426C289.115 136.475 289.966 136.574 290.854 136.722V139.423C290.213 139.324 289.46 139.25 288.597 139.201C287.734 139.127 286.809 139.09 285.822 139.09ZM314.214 130.395H317.248V155H314.621L314.399 153.298H314.325C313.61 153.964 312.734 154.47 311.698 154.815C310.687 155.136 309.515 155.296 308.183 155.296C305.692 155.296 303.903 154.556 302.818 153.076C301.757 151.596 301.227 149.179 301.227 145.824C301.227 142.469 301.881 140.052 303.188 138.572C304.495 137.092 306.678 136.352 309.737 136.352C310.6 136.352 311.402 136.426 312.142 136.574C312.907 136.697 313.597 136.882 314.214 137.129V130.395ZM310.107 139.09C307.813 139.09 306.259 139.571 305.445 140.533C304.656 141.495 304.261 143.259 304.261 145.824C304.261 148.315 304.606 150.054 305.297 151.041C306.012 152.003 307.332 152.484 309.256 152.484C310.169 152.484 311.044 152.373 311.883 152.151C312.722 151.904 313.499 151.547 314.214 151.078V139.83C313.622 139.583 312.993 139.398 312.327 139.275C311.661 139.152 310.921 139.09 310.107 139.09ZM326.276 155.296C324.402 155.296 323.02 154.852 322.132 153.964C321.269 153.051 320.837 151.621 320.837 149.672C320.837 147.699 321.368 146.305 322.428 145.491C323.489 144.652 325.29 144.233 327.83 144.233C328.669 144.233 329.495 144.27 330.309 144.344C331.123 144.418 331.888 144.529 332.603 144.677V142.901C332.603 141.544 332.258 140.57 331.567 139.978C330.877 139.386 329.767 139.09 328.237 139.09C327.103 139.09 326.104 139.139 325.24 139.238C324.377 139.312 323.514 139.448 322.65 139.645V137.018C323.637 136.771 324.636 136.599 325.647 136.5C326.683 136.401 327.855 136.352 329.162 136.352C331.358 136.352 332.986 136.87 334.046 137.906C335.107 138.917 335.637 140.496 335.637 142.642V155H332.862L332.714 153.298H332.64C331.9 153.89 330.938 154.371 329.754 154.741C328.595 155.111 327.436 155.296 326.276 155.296ZM328.163 146.712C326.486 146.712 325.314 146.922 324.648 147.341C324.007 147.736 323.686 148.451 323.686 149.487C323.686 150.572 323.958 151.362 324.5 151.855C325.043 152.324 325.931 152.558 327.164 152.558C328.126 152.558 329.113 152.41 330.124 152.114C331.136 151.818 331.962 151.448 332.603 151.004V147.082C331.789 146.959 331.025 146.872 330.309 146.823C329.619 146.749 328.903 146.712 328.163 146.712ZM352.479 130.395H355.513V155H352.886L352.664 153.298H352.59C351.874 153.964 350.999 154.47 349.963 154.815C348.951 155.136 347.78 155.296 346.448 155.296C343.956 155.296 342.168 154.556 341.083 153.076C340.022 151.596 339.492 149.179 339.492 145.824C339.492 142.469 340.145 140.052 341.453 138.572C342.76 137.092 344.943 136.352 348.002 136.352C348.865 136.352 349.667 136.426 350.407 136.574C351.171 136.697 351.862 136.882 352.479 137.129V130.395ZM348.372 139.09C346.078 139.09 344.524 139.571 343.71 140.533C342.92 141.495 342.526 143.259 342.526 145.824C342.526 148.315 342.871 150.054 343.562 151.041C344.277 152.003 345.597 152.484 347.521 152.484C348.433 152.484 349.309 152.373 350.148 152.151C350.986 151.904 351.763 151.547 352.479 151.078V139.83C351.887 139.583 351.258 139.398 350.592 139.275C349.926 139.152 349.186 139.09 348.372 139.09ZM376.455 145.824C376.455 149.277 375.814 151.719 374.531 153.15C373.273 154.581 371.102 155.296 368.019 155.296C364.837 155.296 362.629 154.605 361.396 153.224C360.163 151.843 359.546 149.376 359.546 145.824C359.546 142.346 360.175 139.904 361.433 138.498C362.716 137.067 364.911 136.352 368.019 136.352C371.201 136.352 373.396 137.043 374.605 138.424C375.838 139.805 376.455 142.272 376.455 145.824ZM362.58 145.787C362.58 148.5 362.938 150.301 363.653 151.189C364.368 152.052 365.824 152.484 368.019 152.484C370.14 152.484 371.571 152.028 372.311 151.115C373.051 150.178 373.421 148.402 373.421 145.787C373.421 143.074 373.063 141.285 372.348 140.422C371.657 139.534 370.214 139.09 368.019 139.09C365.873 139.09 364.43 139.546 363.69 140.459C362.95 141.372 362.58 143.148 362.58 145.787ZM386.777 139.09C385.198 139.09 384.101 139.275 383.484 139.645C382.892 140.015 382.596 140.767 382.596 141.902C382.596 142.494 382.732 142.95 383.003 143.271C383.299 143.567 383.755 143.764 384.372 143.863L389.071 144.566C390.551 144.788 391.587 145.257 392.179 145.972C392.771 146.663 393.067 147.76 393.067 149.265C393.067 151.386 392.561 152.928 391.55 153.89C390.539 154.827 388.861 155.296 386.518 155.296C385.112 155.296 383.805 155.222 382.596 155.074C381.387 154.926 380.388 154.729 379.599 154.482V151.633C380.388 151.88 381.35 152.089 382.485 152.262C383.644 152.41 384.828 152.484 386.037 152.484C387.566 152.484 388.615 152.262 389.182 151.818C389.749 151.374 390.033 150.585 390.033 149.45C390.033 148.735 389.873 148.217 389.552 147.896C389.231 147.551 388.652 147.316 387.813 147.193L383.114 146.49C381.93 146.317 381.042 145.861 380.45 145.121C379.883 144.381 379.587 143.308 379.562 141.902C379.562 139.978 380.129 138.572 381.264 137.684C382.423 136.796 384.199 136.352 386.592 136.352C387.579 136.352 388.467 136.377 389.256 136.426C390.07 136.475 390.921 136.574 391.809 136.722V139.423C391.168 139.324 390.415 139.25 389.552 139.201C388.689 139.127 387.764 139.09 386.777 139.09ZM407.214 155.296C405.339 155.296 403.958 154.852 403.07 153.964C402.207 153.051 401.775 151.621 401.775 149.672C401.775 147.699 402.305 146.305 403.366 145.491C404.427 144.652 406.227 144.233 408.768 144.233C409.607 144.233 410.433 144.27 411.247 144.344C412.061 144.418 412.826 144.529 413.541 144.677V142.901C413.541 141.544 413.196 140.57 412.505 139.978C411.814 139.386 410.704 139.09 409.175 139.09C408.04 139.09 407.041 139.139 406.178 139.238C405.315 139.312 404.451 139.448 403.588 139.645V137.018C404.575 136.771 405.574 136.599 406.585 136.5C407.621 136.401 408.793 136.352 410.1 136.352C412.295 136.352 413.923 136.87 414.984 137.906C416.045 138.917 416.575 140.496 416.575 142.642V155H413.8L413.652 153.298H413.578C412.838 153.89 411.876 154.371 410.692 154.741C409.533 155.111 408.373 155.296 407.214 155.296ZM409.101 146.712C407.424 146.712 406.252 146.922 405.586 147.341C404.945 147.736 404.624 148.451 404.624 149.487C404.624 150.572 404.895 151.362 405.438 151.855C405.981 152.324 406.869 152.558 408.102 152.558C409.064 152.558 410.051 152.41 411.062 152.114C412.073 151.818 412.9 151.448 413.541 151.004V147.082C412.727 146.959 411.962 146.872 411.247 146.823C410.556 146.749 409.841 146.712 409.101 146.712ZM431.83 152.151V154.704C431.436 154.877 430.893 155.012 430.202 155.111C429.536 155.234 428.895 155.296 428.278 155.296C426.058 155.296 424.467 154.803 423.505 153.816C422.568 152.829 422.099 151.127 422.099 148.71V139.312H419.361V136.722H422.136L422.617 132.282H425.133V136.722H431.645V139.312H425.133V148.599C425.133 150.104 425.405 151.127 425.947 151.67C426.515 152.213 427.501 152.484 428.907 152.484C429.351 152.484 429.857 152.447 430.424 152.373C431.016 152.299 431.485 152.225 431.83 152.151ZM440.751 155.296C438.728 155.296 437.211 154.79 436.2 153.779C435.188 152.768 434.683 151.251 434.683 149.228V136.722H437.717V148.858C437.717 150.116 438.037 151.029 438.679 151.596C439.32 152.163 440.331 152.447 441.713 152.447C442.551 152.447 443.39 152.348 444.229 152.151C445.092 151.929 445.955 151.596 446.819 151.152V136.722H449.853V155H447.078L446.93 153.483H446.856C445.573 154.149 444.463 154.618 443.526 154.889C442.588 155.16 441.663 155.296 440.751 155.296ZM458.884 155.296C457.009 155.296 455.628 154.852 454.74 153.964C453.877 153.051 453.445 151.621 453.445 149.672C453.445 147.699 453.975 146.305 455.036 145.491C456.097 144.652 457.897 144.233 460.438 144.233C461.277 144.233 462.103 144.27 462.917 144.344C463.731 144.418 464.496 144.529 465.211 144.677V142.901C465.211 141.544 464.866 140.57 464.175 139.978C463.484 139.386 462.374 139.09 460.845 139.09C459.71 139.09 458.711 139.139 457.848 139.238C456.985 139.312 456.121 139.448 455.258 139.645V137.018C456.245 136.771 457.244 136.599 458.255 136.5C459.291 136.401 460.463 136.352 461.77 136.352C463.965 136.352 465.593 136.87 466.654 137.906C467.715 138.917 468.245 140.496 468.245 142.642V155H465.47L465.322 153.298H465.248C464.508 153.89 463.546 154.371 462.362 154.741C461.203 155.111 460.043 155.296 458.884 155.296ZM460.771 146.712C459.094 146.712 457.922 146.922 457.256 147.341C456.615 147.736 456.294 148.451 456.294 149.487C456.294 150.572 456.565 151.362 457.108 151.855C457.651 152.324 458.539 152.558 459.772 152.558C460.734 152.558 461.721 152.41 462.732 152.114C463.743 151.818 464.57 151.448 465.211 151.004V147.082C464.397 146.959 463.632 146.872 462.917 146.823C462.226 146.749 461.511 146.712 460.771 146.712ZM476.021 130.395V155H472.987V130.395H476.021ZM484.045 133.54H480.789V130.395H484.045V133.54ZM483.934 155H480.9V136.722H483.934V155ZM501.171 152.336V155H487.444V152.336L497.101 139.312H488.11V136.722H500.542V139.312L490.885 152.336H501.171ZM508.711 155.296C506.836 155.296 505.455 154.852 504.567 153.964C503.704 153.051 503.272 151.621 503.272 149.672C503.272 147.699 503.802 146.305 504.863 145.491C505.924 144.652 507.724 144.233 510.265 144.233C511.104 144.233 511.93 144.27 512.744 144.344C513.558 144.418 514.323 144.529 515.038 144.677V142.901C515.038 141.544 514.693 140.57 514.002 139.978C513.311 139.386 512.201 139.09 510.672 139.09C509.537 139.09 508.538 139.139 507.675 139.238C506.812 139.312 505.948 139.448 505.085 139.645V137.018C506.072 136.771 507.071 136.599 508.082 136.5C509.118 136.401 510.29 136.352 511.597 136.352C513.792 136.352 515.42 136.87 516.481 137.906C517.542 138.917 518.072 140.496 518.072 142.642V155H515.297L515.149 153.298H515.075C514.335 153.89 513.373 154.371 512.189 154.741C511.03 155.111 509.87 155.296 508.711 155.296ZM510.598 146.712C508.921 146.712 507.749 146.922 507.083 147.341C506.442 147.736 506.121 148.451 506.121 149.487C506.121 150.572 506.392 151.362 506.935 151.855C507.478 152.324 508.366 152.558 509.599 152.558C510.561 152.558 511.548 152.41 512.559 152.114C513.57 151.818 514.397 151.448 515.038 151.004V147.082C514.224 146.959 513.459 146.872 512.744 146.823C512.053 146.749 511.338 146.712 510.598 146.712ZM534.913 130.395H537.947V155H535.32L535.098 153.298H535.024C534.309 153.964 533.433 154.47 532.397 154.815C531.386 155.136 530.214 155.296 528.882 155.296C526.391 155.296 524.602 154.556 523.517 153.076C522.456 151.596 521.926 149.179 521.926 145.824C521.926 142.469 522.58 140.052 523.887 138.572C525.194 137.092 527.377 136.352 530.436 136.352C531.299 136.352 532.101 136.426 532.841 136.574C533.606 136.697 534.296 136.882 534.913 137.129V130.395ZM530.806 139.09C528.512 139.09 526.958 139.571 526.144 140.533C525.355 141.495 524.96 143.259 524.96 145.824C524.96 148.315 525.305 150.054 525.996 151.041C526.711 152.003 528.031 152.484 529.955 152.484C530.868 152.484 531.743 152.373 532.582 152.151C533.421 151.904 534.198 151.547 534.913 151.078V139.83C534.321 139.583 533.692 139.398 533.026 139.275C532.36 139.152 531.62 139.09 530.806 139.09ZM558.89 145.824C558.89 149.277 558.248 151.719 556.966 153.15C555.708 154.581 553.537 155.296 550.454 155.296C547.272 155.296 545.064 154.605 543.831 153.224C542.597 151.843 541.981 149.376 541.981 145.824C541.981 142.346 542.61 139.904 543.868 138.498C545.15 137.067 547.346 136.352 550.454 136.352C553.636 136.352 555.831 137.043 557.04 138.424C558.273 139.805 558.89 142.272 558.89 145.824ZM545.015 145.787C545.015 148.5 545.372 150.301 546.088 151.189C546.803 152.052 548.258 152.484 550.454 152.484C552.575 152.484 554.006 152.028 554.746 151.115C555.486 150.178 555.856 148.402 555.856 145.787C555.856 143.074 555.498 141.285 554.783 140.422C554.092 139.534 552.649 139.09 550.454 139.09C548.308 139.09 546.865 139.546 546.125 140.459C545.385 141.372 545.015 143.148 545.015 145.787ZM569.211 139.09C567.633 139.09 566.535 139.275 565.918 139.645C565.326 140.015 565.03 140.767 565.03 141.902C565.03 142.494 565.166 142.95 565.437 143.271C565.733 143.567 566.19 143.764 566.806 143.863L571.505 144.566C572.985 144.788 574.021 145.257 574.613 145.972C575.205 146.663 575.501 147.76 575.501 149.265C575.501 151.386 574.996 152.928 573.984 153.89C572.973 154.827 571.296 155.296 568.952 155.296C567.546 155.296 566.239 155.222 565.03 155.074C563.822 154.926 562.823 154.729 562.033 154.482V151.633C562.823 151.88 563.785 152.089 564.919 152.262C566.079 152.41 567.263 152.484 568.471 152.484C570.001 152.484 571.049 152.262 571.616 151.818C572.184 151.374 572.467 150.585 572.467 149.45C572.467 148.735 572.307 148.217 571.986 147.896C571.666 147.551 571.086 147.316 570.247 147.193L565.548 146.49C564.364 146.317 563.476 145.861 562.884 145.121C562.317 144.381 562.021 143.308 561.996 141.902C561.996 139.978 562.564 138.572 563.698 137.684C564.858 136.796 566.634 136.352 569.026 136.352C570.013 136.352 570.901 136.377 571.69 136.426C572.504 136.475 573.355 136.574 574.243 136.722V139.423C573.602 139.324 572.85 139.25 571.986 139.201C571.123 139.127 570.198 139.09 569.211 139.09ZM597.604 130.395H600.638V155H598.011L597.789 153.298H597.715C596.999 153.964 596.124 154.47 595.088 154.815C594.076 155.136 592.905 155.296 591.573 155.296C589.081 155.296 587.293 154.556 586.208 153.076C585.147 151.596 584.617 149.179 584.617 145.824C584.617 142.469 585.27 140.052 586.578 138.572C587.885 137.092 590.068 136.352 593.127 136.352C593.99 136.352 594.792 136.426 595.532 136.574C596.296 136.697 596.987 136.882 597.604 137.129V130.395ZM593.497 139.09C591.203 139.09 589.649 139.571 588.835 140.533C588.045 141.495 587.651 143.259 587.651 145.824C587.651 148.315 587.996 150.054 588.687 151.041C589.402 152.003 590.722 152.484 592.646 152.484C593.558 152.484 594.434 152.373 595.273 152.151C596.111 151.904 596.888 151.547 597.604 151.078V139.83C597.012 139.583 596.383 139.398 595.717 139.275C595.051 139.152 594.311 139.09 593.497 139.09ZM609.666 155.296C607.791 155.296 606.41 154.852 605.522 153.964C604.659 153.051 604.227 151.621 604.227 149.672C604.227 147.699 604.757 146.305 605.818 145.491C606.879 144.652 608.679 144.233 611.22 144.233C612.059 144.233 612.885 144.27 613.699 144.344C614.513 144.418 615.278 144.529 615.993 144.677V142.901C615.993 141.544 615.648 140.57 614.957 139.978C614.266 139.386 613.156 139.09 611.627 139.09C610.492 139.09 609.493 139.139 608.63 139.238C607.767 139.312 606.903 139.448 606.04 139.645V137.018C607.027 136.771 608.026 136.599 609.037 136.5C610.073 136.401 611.245 136.352 612.552 136.352C614.747 136.352 616.375 136.87 617.436 137.906C618.497 138.917 619.027 140.496 619.027 142.642V155H616.252L616.104 153.298H616.03C615.29 153.89 614.328 154.371 613.144 154.741C611.985 155.111 610.825 155.296 609.666 155.296ZM611.553 146.712C609.876 146.712 608.704 146.922 608.038 147.341C607.397 147.736 607.076 148.451 607.076 149.487C607.076 150.572 607.347 151.362 607.89 151.855C608.433 152.324 609.321 152.558 610.554 152.558C611.516 152.558 612.503 152.41 613.514 152.114C614.525 151.818 615.352 151.448 615.993 151.004V147.082C615.179 146.959 614.414 146.872 613.699 146.823C613.008 146.749 612.293 146.712 611.553 146.712ZM639.527 152.336C640.539 152.336 641.599 152.225 642.709 152.003C643.844 151.756 644.892 151.436 645.854 151.041V153.853C644.498 154.396 643.289 154.778 642.228 155C641.192 155.197 640.107 155.296 638.972 155.296C635.42 155.296 632.917 154.383 631.461 152.558C630.006 150.708 629.278 147.637 629.278 143.345C629.278 139.226 630.117 136.216 631.794 134.317C633.496 132.393 636.197 131.431 639.897 131.431C641.032 131.431 642.043 131.456 642.931 131.505C643.819 131.554 644.621 131.641 645.336 131.764V134.539C644.473 134.44 643.597 134.379 642.709 134.354C641.846 134.305 640.909 134.28 639.897 134.28C637.135 134.28 635.211 134.971 634.125 136.352C633.04 137.709 632.497 140.04 632.497 143.345C632.497 146.7 632.991 149.043 633.977 150.375C634.964 151.682 636.814 152.336 639.527 152.336ZM668.896 143.345C668.896 147.563 668.082 150.609 666.454 152.484C664.851 154.359 662.224 155.296 658.573 155.296C654.651 155.296 651.938 154.433 650.433 152.706C648.953 150.955 648.213 147.834 648.213 143.345C648.213 139.152 649.027 136.118 650.655 134.243C652.283 132.368 654.922 131.431 658.573 131.431C662.495 131.431 665.196 132.307 666.676 134.058C668.156 135.785 668.896 138.88 668.896 143.345ZM652.505 150.042C652.974 150.881 653.664 151.473 654.577 151.818C655.49 152.163 656.822 152.336 658.573 152.336C661.311 152.336 663.186 151.682 664.197 150.375C665.208 149.043 665.714 146.7 665.714 143.345C665.714 141.668 665.628 140.299 665.455 139.238C665.282 138.153 665.011 137.277 664.641 136.611C664.172 135.772 663.482 135.18 662.569 134.835C661.681 134.465 660.349 134.28 658.573 134.28C655.81 134.28 653.923 134.946 652.912 136.278C651.901 137.61 651.395 139.966 651.395 143.345C651.395 145.022 651.481 146.404 651.654 147.489C651.827 148.55 652.11 149.401 652.505 150.042ZM679.134 155L670.439 131.801H673.917L679.245 146.49C679.442 147.107 679.689 147.896 679.985 148.858C680.281 149.795 680.638 151.016 681.058 152.521C681.378 151.337 681.687 150.215 681.983 149.154C682.303 148.093 682.587 147.205 682.834 146.49L688.125 131.801H691.529L682.834 155H679.134ZM697.631 131.801V155H694.486V131.801H697.631ZM709.675 155H702.941V131.801H709.675C712.043 131.801 713.918 131.998 715.299 132.393C716.705 132.788 717.828 133.417 718.666 134.28C719.505 135.143 720.109 136.315 720.479 137.795C720.874 139.25 721.071 141.113 721.071 143.382C721.071 147.403 720.171 150.35 718.37 152.225C716.57 154.075 713.671 155 709.675 155ZM716.298 136.537C715.731 135.871 714.942 135.39 713.93 135.094C712.919 134.798 711.501 134.65 709.675 134.65H706.086V152.04H709.675C712.734 152.04 714.855 151.386 716.039 150.079C717.248 148.772 717.852 146.539 717.852 143.382C717.852 141.631 717.729 140.212 717.482 139.127C717.236 138.042 716.841 137.178 716.298 136.537ZM736.554 142.05V144.418H724.751V142.05H736.554ZM746.702 155H743.557V134.539L736.712 135.39V132.689L746.702 131.431V155ZM758.811 131.431C761.795 131.431 763.867 132.27 765.027 133.947C766.211 135.624 766.803 138.547 766.803 142.716C766.803 147.181 766.001 150.4 764.398 152.373C762.819 154.322 760.229 155.296 756.628 155.296C756.036 155.296 755.407 155.259 754.741 155.185C754.075 155.136 753.569 155.074 753.224 155V152.151C753.618 152.2 754.099 152.25 754.667 152.299C755.259 152.324 755.912 152.336 756.628 152.336C759.045 152.336 760.759 151.781 761.771 150.671C762.807 149.561 763.411 147.6 763.584 144.788C762.646 145.355 761.672 145.787 760.661 146.083C759.649 146.354 758.564 146.49 757.405 146.49C755.16 146.49 753.507 145.91 752.447 144.751C751.386 143.567 750.856 141.754 750.856 139.312C750.856 136.821 751.546 134.884 752.928 133.503C754.334 132.122 756.295 131.431 758.811 131.431ZM758.811 134.28C757.207 134.28 755.986 134.699 755.148 135.538C754.334 136.352 753.927 137.561 753.927 139.164C753.927 140.866 754.26 142.075 754.926 142.79C755.616 143.481 756.813 143.826 758.515 143.826C759.427 143.826 760.315 143.703 761.179 143.456C762.042 143.185 762.868 142.79 763.658 142.272C763.633 139.189 763.275 137.092 762.585 135.982C761.919 134.847 760.661 134.28 758.811 134.28ZM780.368 155H777.334V136.722H779.961L780.109 138.498H780.22C781.206 137.758 782.23 137.215 783.291 136.87C784.376 136.525 785.585 136.352 786.917 136.352C788.939 136.352 790.469 136.858 791.505 137.869C792.565 138.88 793.096 140.373 793.096 142.346V155H790.062V142.716C790.062 141.483 789.716 140.57 789.026 139.978C788.335 139.386 787.274 139.09 785.844 139.09C784.956 139.09 784.043 139.238 783.106 139.534C782.193 139.805 781.28 140.212 780.368 140.755V155ZM813.879 145.824C813.879 149.277 813.238 151.719 811.955 153.15C810.697 154.581 808.526 155.296 805.443 155.296C802.261 155.296 800.053 154.605 798.82 153.224C797.587 151.843 796.97 149.376 796.97 145.824C796.97 142.346 797.599 139.904 798.857 138.498C800.14 137.067 802.335 136.352 805.443 136.352C808.625 136.352 810.82 137.043 812.029 138.424C813.262 139.805 813.879 142.272 813.879 145.824ZM800.004 145.787C800.004 148.5 800.362 150.301 801.077 151.189C801.792 152.052 803.248 152.484 805.443 152.484C807.564 152.484 808.995 152.028 809.735 151.115C810.475 150.178 810.845 148.402 810.845 145.787C810.845 143.074 810.487 141.285 809.772 140.422C809.081 139.534 807.638 139.09 805.443 139.09C803.297 139.09 801.854 139.546 801.114 140.459C800.374 141.372 800.004 143.148 800.004 145.787ZM841.106 148.34C841.106 150.708 840.465 152.41 839.182 153.446C837.899 154.482 835.84 155 833.003 155H824.456V131.801H832.966C835.531 131.801 837.357 132.233 838.442 133.096C839.527 133.959 840.07 135.439 840.07 137.536C840.07 139.041 839.799 140.2 839.256 141.014C838.738 141.828 837.85 142.383 836.592 142.679C838.097 142.876 839.219 143.444 839.959 144.381C840.724 145.318 841.106 146.638 841.106 148.34ZM837.147 137.98C837.147 136.697 836.839 135.809 836.222 135.316C835.605 134.798 834.532 134.539 833.003 134.539H827.601V141.791H833.003C834.483 141.791 835.544 141.495 836.185 140.903C836.826 140.311 837.147 139.337 837.147 137.98ZM838.072 148.155C838.072 146.774 837.69 145.812 836.925 145.269C836.16 144.726 834.853 144.455 833.003 144.455H827.601V152.188H833.003C834.853 152.188 836.16 151.892 836.925 151.3C837.69 150.708 838.072 149.66 838.072 148.155ZM847.972 155H844.938V136.722H847.713L847.861 138.276H848.009C848.971 137.709 849.933 137.289 850.895 137.018C851.857 136.722 852.807 136.574 853.744 136.574C854.139 136.574 854.398 136.574 854.521 136.574C854.669 136.574 854.78 136.586 854.854 136.611V139.534C854.681 139.485 854.459 139.46 854.188 139.46C853.941 139.435 853.547 139.423 853.004 139.423C852.116 139.423 851.24 139.534 850.377 139.756C849.538 139.953 848.737 140.262 847.972 140.681V155ZM861.656 155.296C859.782 155.296 858.4 154.852 857.512 153.964C856.649 153.051 856.217 151.621 856.217 149.672C856.217 147.699 856.748 146.305 857.808 145.491C858.869 144.652 860.67 144.233 863.21 144.233C864.049 144.233 864.875 144.27 865.689 144.344C866.503 144.418 867.268 144.529 867.983 144.677V142.901C867.983 141.544 867.638 140.57 866.947 139.978C866.257 139.386 865.147 139.09 863.617 139.09C862.483 139.09 861.484 139.139 860.62 139.238C859.757 139.312 858.894 139.448 858.03 139.645V137.018C859.017 136.771 860.016 136.599 861.027 136.5C862.063 136.401 863.235 136.352 864.542 136.352C866.738 136.352 868.366 136.87 869.426 137.906C870.487 138.917 871.017 140.496 871.017 142.642V155H868.242L868.094 153.298H868.02C867.28 153.89 866.318 154.371 865.134 154.741C863.975 155.111 862.816 155.296 861.656 155.296ZM863.543 146.712C861.866 146.712 860.694 146.922 860.028 147.341C859.387 147.736 859.066 148.451 859.066 149.487C859.066 150.572 859.338 151.362 859.88 151.855C860.423 152.324 861.311 152.558 862.544 152.558C863.506 152.558 864.493 152.41 865.504 152.114C866.516 151.818 867.342 151.448 867.983 151.004V147.082C867.169 146.959 866.405 146.872 865.689 146.823C864.999 146.749 864.283 146.712 863.543 146.712ZM882.049 139.09C880.471 139.09 879.373 139.275 878.756 139.645C878.164 140.015 877.868 140.767 877.868 141.902C877.868 142.494 878.004 142.95 878.275 143.271C878.571 143.567 879.028 143.764 879.644 143.863L884.343 144.566C885.823 144.788 886.859 145.257 887.451 145.972C888.043 146.663 888.339 147.76 888.339 149.265C888.339 151.386 887.834 152.928 886.822 153.89C885.811 154.827 884.134 155.296 881.79 155.296C880.384 155.296 879.077 155.222 877.868 155.074C876.66 154.926 875.661 154.729 874.871 154.482V151.633C875.661 151.88 876.623 152.089 877.757 152.262C878.917 152.41 880.101 152.484 881.309 152.484C882.839 152.484 883.887 152.262 884.454 151.818C885.022 151.374 885.305 150.585 885.305 149.45C885.305 148.735 885.145 148.217 884.824 147.896C884.504 147.551 883.924 147.316 883.085 147.193L878.386 146.49C877.202 146.317 876.314 145.861 875.722 145.121C875.155 144.381 874.859 143.308 874.834 141.902C874.834 139.978 875.402 138.572 876.536 137.684C877.696 136.796 879.472 136.352 881.864 136.352C882.851 136.352 883.739 136.377 884.528 136.426C885.342 136.475 886.193 136.574 887.081 136.722V139.423C886.44 139.324 885.688 139.25 884.824 139.201C883.961 139.127 883.036 139.09 882.049 139.09ZM895.164 133.54H891.908V130.395H895.164V133.54ZM895.053 155H892.019V136.722H895.053V155ZM902.966 130.395V155H899.932V130.395H902.966Z" fill="black"/>
<path d="M277.754 112.304C279.777 112.304 281.923 112.082 284.192 111.638C286.511 111.194 288.583 110.602 290.408 109.862V117.78C287.695 118.865 285.253 119.605 283.082 120C280.961 120.444 278.741 120.666 276.422 120.666C269.071 120.666 263.941 118.841 261.03 115.19C258.119 111.49 256.664 105.323 256.664 96.69C256.664 88.4513 258.391 82.4327 261.844 78.634C265.297 74.786 270.847 72.862 278.494 72.862C280.763 72.862 282.786 72.9113 284.562 73.01C286.338 73.1087 287.941 73.2813 289.372 73.528V81.298C287.497 81.15 285.672 81.0513 283.896 81.002C282.169 80.9033 280.369 80.854 278.494 80.854C273.511 80.854 270.132 82.0133 268.356 84.332C266.629 86.6507 265.766 90.77 265.766 96.69C265.766 102.61 266.555 106.705 268.134 108.974C269.762 111.194 272.969 112.304 277.754 112.304ZM336.792 96.69C336.792 105.126 335.115 111.243 331.76 115.042C328.455 118.791 323.053 120.666 315.554 120.666C307.562 120.666 302.012 118.915 298.904 115.412C295.796 111.86 294.242 105.619 294.242 96.69C294.242 88.3033 295.919 82.2353 299.274 78.486C302.629 74.7367 308.055 72.862 315.554 72.862C323.497 72.862 329.022 74.638 332.13 78.19C335.238 81.6927 336.792 87.8593 336.792 96.69ZM305.046 108.382C305.835 109.813 306.995 110.824 308.524 111.416C310.053 112.008 312.397 112.304 315.554 112.304C320.438 112.304 323.694 111.219 325.322 109.048C326.95 106.828 327.764 102.709 327.764 96.69C327.764 93.7793 327.616 91.3867 327.32 89.512C327.073 87.6373 326.629 86.108 325.988 84.924C325.199 83.444 324.039 82.408 322.51 81.816C320.981 81.1747 318.662 80.854 315.554 80.854C310.621 80.854 307.34 81.964 305.712 84.184C304.084 86.404 303.27 90.5727 303.27 96.69C303.27 99.6007 303.418 101.993 303.714 103.868C304.01 105.743 304.454 107.247 305.046 108.382ZM355.208 120L338.484 73.602H348.4L357.132 99.724C357.576 101.056 358.094 102.857 358.686 105.126C359.327 107.346 359.993 109.862 360.684 112.674C361.374 109.813 362.016 107.272 362.608 105.052C363.249 102.832 363.767 101.081 364.162 99.798L372.894 73.602H382.514L365.79 120H355.208ZM396.025 73.602V120H387.145V73.602H396.025ZM419.796 120H404.922V73.602H419.796C424.532 73.602 428.282 73.9967 431.044 74.786C433.856 75.5753 436.101 76.8333 437.778 78.56C439.456 80.2867 440.664 82.63 441.404 85.59C442.194 88.5007 442.588 92.2253 442.588 96.764C442.588 104.805 440.788 110.701 437.186 114.45C433.585 118.15 427.788 120 419.796 120ZM430.97 84.998C430.033 83.7647 428.726 82.9013 427.048 82.408C425.371 81.8653 422.954 81.594 419.796 81.594H413.802V111.638H419.796C425.124 111.638 428.726 110.553 430.6 108.382C432.475 106.211 433.412 102.339 433.412 96.764C433.412 93.804 433.215 91.3867 432.82 89.512C432.426 87.6373 431.809 86.1327 430.97 84.998ZM488.581 73.602V120H479.923L457.945 88.55V120H449.583V73.602H458.241L480.293 105.792V73.602H488.581ZM538.269 96.69C538.269 105.126 536.591 111.243 533.237 115.042C529.931 118.791 524.529 120.666 517.031 120.666C509.039 120.666 503.489 118.915 500.381 115.412C497.273 111.86 495.719 105.619 495.719 96.69C495.719 88.3033 497.396 82.2353 500.751 78.486C504.105 74.7367 509.532 72.862 517.031 72.862C524.973 72.862 530.499 74.638 533.607 78.19C536.715 81.6927 538.269 87.8593 538.269 96.69ZM506.523 108.382C507.312 109.813 508.471 110.824 510.001 111.416C511.53 112.008 513.873 112.304 517.031 112.304C521.915 112.304 525.171 111.219 526.799 109.048C528.427 106.828 529.241 102.709 529.241 96.69C529.241 93.7793 529.093 91.3867 528.797 89.512C528.55 87.6373 528.106 86.108 527.465 84.924C526.675 83.444 525.516 82.408 523.987 81.816C522.457 81.1747 520.139 80.854 517.031 80.854C512.097 80.854 508.817 81.964 507.189 84.184C505.561 86.404 504.747 90.5727 504.747 96.69C504.747 99.6007 504.895 101.993 505.191 103.868C505.487 105.743 505.931 107.247 506.523 108.382ZM580.187 106.532C580.187 111.268 578.855 114.697 576.191 116.818C573.527 118.939 569.309 120 563.537 120H545.407V73.602H563.537C568.766 73.602 572.466 74.49 574.637 76.266C576.857 78.042 577.967 81.076 577.967 85.368C577.967 88.2787 577.523 90.4987 576.635 92.028C575.747 93.5573 574.119 94.6673 571.751 95.358C574.563 95.8513 576.659 97.0353 578.041 98.91C579.471 100.735 580.187 103.276 580.187 106.532ZM569.753 86.626C569.753 84.5047 569.284 83.0493 568.347 82.26C567.459 81.4213 565.855 81.002 563.537 81.002H554.287V92.99H563.537C565.757 92.99 567.335 92.4967 568.273 91.51C569.259 90.5233 569.753 88.8953 569.753 86.626ZM571.603 105.94C571.603 103.671 570.986 102.092 569.753 101.204C568.569 100.316 566.497 99.872 563.537 99.872H554.287V112.304H563.537C566.497 112.304 568.569 111.835 569.753 110.898C570.986 109.961 571.603 108.308 571.603 105.94ZM595.623 104.164V120H586.743V73.602H603.097C609.954 73.602 614.838 74.7613 617.749 77.08C620.709 79.3987 622.189 83.2713 622.189 88.698C622.189 92.5953 621.325 95.7527 619.599 98.17C617.921 100.538 615.356 102.191 611.903 103.128L623.595 120H612.939L602.505 104.164H595.623ZM613.161 88.698C613.161 86.1327 612.396 84.3073 610.867 83.222C609.387 82.1367 606.797 81.594 603.097 81.594H595.623V96.764H603.097C606.797 96.764 609.387 96.1473 610.867 94.914C612.396 93.6807 613.161 91.6087 613.161 88.698ZM634.63 120H625.306L643.066 73.602H652.242L669.706 120H660.382L657.052 110.528H637.886L634.63 120ZM647.432 82.112C646.889 83.9867 646.273 85.96 645.582 88.032C644.941 90.104 644.324 92.028 643.732 93.804L640.476 103.202H654.462L651.206 93.804C650.663 92.2253 650.047 90.4 649.356 88.328C648.665 86.2067 648.024 84.1347 647.432 82.112ZM692.089 101.574L681.803 99.132C678.399 98.3427 676.006 97.06 674.625 95.284C673.243 93.4587 672.553 90.8687 672.553 87.514C672.553 82.482 673.934 78.782 676.697 76.414C679.459 74.046 683.751 72.862 689.573 72.862C691.99 72.862 694.136 72.9853 696.011 73.232C697.935 73.4293 699.711 73.75 701.339 74.194V82.186C698.527 81.6433 696.282 81.298 694.605 81.15C692.927 80.9527 691.201 80.854 689.425 80.854C686.465 80.854 684.368 81.3227 683.135 82.26C681.901 83.148 681.285 84.702 681.285 86.922C681.285 88.2047 681.531 89.1913 682.025 89.882C682.567 90.5233 683.455 90.992 684.689 91.288L694.679 93.656C696.997 94.1987 698.724 94.766 699.859 95.358C700.993 95.9007 701.931 96.5913 702.671 97.43C703.411 98.3673 703.953 99.5267 704.299 100.908C704.693 102.289 704.891 103.991 704.891 106.014C704.891 111.243 703.509 114.993 700.747 117.262C697.984 119.531 693.692 120.666 687.871 120.666C684.861 120.666 681.951 120.469 679.139 120.074C676.376 119.679 674.205 119.186 672.627 118.594V110.232C674.748 110.873 677.141 111.391 679.805 111.786C682.518 112.131 685.207 112.304 687.871 112.304C690.781 112.304 692.804 111.909 693.939 111.12C695.123 110.281 695.715 108.678 695.715 106.31C695.715 104.83 695.468 103.769 694.975 103.128C694.531 102.437 693.569 101.919 692.089 101.574ZM719.992 73.602V120H711.112V73.602H719.992ZM757.897 111.638V120H728.889V73.602H737.769V111.638H757.897ZM770.166 120H761.804V111.786H770.166V120ZM806.46 111.638V120H777.452V73.602H786.332V111.638H806.46ZM820.875 73.602V120H811.995V73.602H820.875ZM842.278 120L825.554 73.602H835.47L844.202 99.724C844.646 101.056 845.164 102.857 845.756 105.126C846.397 107.346 847.063 109.862 847.754 112.674C848.445 109.813 849.086 107.272 849.678 105.052C850.319 102.832 850.837 101.081 851.232 99.798L859.964 73.602H869.584L852.86 120H842.278ZM905.591 111.638V120H874.215V73.602H904.925V81.594H883.095V92.546H902.187V100.168H883.095V111.638H905.591Z" fill="#303030"/>
<path d="M161 90.5608C158.273 58.9316 135.217 41 103.235 41C69.0229 41 42 63.9125 42 106.5C42 148.901 68.2792 172 103.235 172C140.423 172 159.265 146.099 161 124.432L126.044 124.183C124.308 135.078 116.623 141.865 103.979 141.865C87.1828 141.865 77.4521 129.911 77.4521 106.5C77.4521 84.3346 86.8729 71.135 104.227 71.135C117.491 71.135 125.052 78.98 126.044 90.5608H161Z" fill="#FC3939" fill-opacity="0.9"/>
<path d="M141.237 30.6885C136.363 25.814 130.576 21.9474 124.207 19.3093C117.838 16.6713 111.012 15.3135 104.119 15.3135C97.225 15.3135 90.399 16.6713 84.0301 19.3093C77.6613 21.9474 71.8745 25.814 67 30.6885L73.5795 37.268C77.5899 33.2575 82.351 30.0763 87.5909 27.9058C92.8308 25.7354 98.4469 24.6183 104.119 24.6183C109.79 24.6183 115.406 25.7354 120.646 27.9058C125.886 30.0763 130.647 33.2575 134.658 37.268L141.237 30.6885Z" fill="#FC3939" fill-opacity="0.8"/>
<path d="M137.838 13.9831C133.416 9.54992 128.167 6.03332 122.389 3.63409C116.611 1.23487 110.419 -1.37024e-07 104.165 0C97.9116 1.37024e-07 91.7192 1.23487 85.9415 3.63409C80.1639 6.03332 74.9142 9.54992 70.4922 13.9831L76.461 19.967C80.0991 16.3196 84.4183 13.4263 89.1718 11.4524C93.9253 9.47843 99.0201 8.46245 104.165 8.46245C109.31 8.46245 114.405 9.47843 119.159 11.4524C123.912 13.4263 128.231 16.3196 131.87 19.967L137.838 13.9831Z" fill="#FC3939" fill-opacity="0.6"/>
<path d="M179.58 146.237C184.454 141.363 188.321 135.576 190.959 129.207C193.597 122.838 194.955 116.012 194.955 109.119C194.955 102.225 193.597 95.399 190.959 89.0301C188.321 82.6613 184.454 76.8745 179.58 72L173 78.5795C177.011 82.5899 180.192 87.351 182.362 92.5909C184.533 97.8308 185.65 103.447 185.65 109.119C185.65 114.79 184.533 120.406 182.362 125.646C180.192 130.886 177.011 135.647 173 139.658L179.58 146.237Z" fill="#FC3939" fill-opacity="0.8"/>
<path d="M196.285 142.838C200.718 138.416 204.235 133.167 206.634 127.389C209.033 121.611 210.268 115.419 210.268 109.165C210.268 102.912 209.033 96.7192 206.634 90.9415C204.235 85.1639 200.718 79.9142 196.285 75.4922L190.301 81.461C193.948 85.0991 196.842 89.4183 198.816 94.1718C200.79 98.9253 201.806 104.02 201.806 109.165C201.806 114.31 200.79 119.405 198.816 124.159C196.842 128.912 193.948 133.231 190.301 136.87L196.285 142.838Z" fill="#FC3939" fill-opacity="0.6"/>
<path d="M66.9999 182.58C71.8744 187.454 77.6613 191.321 84.0301 193.959C90.3989 196.597 97.2249 197.955 104.119 197.955C111.012 197.955 117.838 196.597 124.207 193.959C130.576 191.321 136.363 187.454 141.237 182.58L134.658 176C130.647 180.01 125.886 183.192 120.646 185.362C115.406 187.533 109.79 188.65 104.119 188.65C98.4469 188.65 92.8308 187.533 87.5909 185.362C82.351 183.192 77.5899 180.01 73.5794 176L66.9999 182.58Z" fill="#FC3939" fill-opacity="0.8"/>
<path d="M70.3987 199.285C74.8207 203.718 80.0704 207.235 85.848 209.634C91.6257 212.033 97.8181 213.268 104.072 213.268C110.325 213.268 116.518 212.033 122.296 209.634C128.073 207.235 133.323 203.718 137.745 199.285L131.776 193.301C128.138 196.948 123.819 199.842 119.065 201.816C114.312 203.79 109.217 204.806 104.072 204.806C98.9266 204.806 93.8318 203.79 89.0783 201.816C84.3248 199.842 80.0056 196.948 76.3674 193.301L70.3987 199.285Z" fill="#FC3939" fill-opacity="0.6"/>
<path d="M30.6885 69C25.814 73.8745 21.9474 79.6613 19.3093 86.0301C16.6713 92.399 15.3135 99.225 15.3135 106.119C15.3135 113.012 16.6713 119.838 19.3093 126.207C21.9474 132.576 25.814 138.363 30.6885 143.237L37.268 136.658C33.2575 132.647 30.0763 127.886 27.9058 122.646C25.7354 117.406 24.6183 111.79 24.6183 106.119C24.6183 100.447 25.7354 94.8308 27.9058 89.5909C30.0763 84.351 33.2575 79.59 37.268 75.5795L30.6885 69Z" fill="#FC3939" fill-opacity="0.8"/>
<path d="M13.9831 72.3987C9.54991 76.8207 6.03331 82.0704 3.63409 87.8481C1.23486 93.6257 -1.88228e-06 99.8182 -1.4719e-06 106.072C-1.06152e-06 112.326 1.23486 118.518 3.63409 124.296C6.03332 130.073 9.54992 135.323 13.9831 139.745L19.967 133.776C16.3196 130.138 13.4263 125.819 11.4524 121.065C9.47843 116.312 8.46245 111.217 8.46245 106.072C8.46245 100.927 9.47842 95.8319 11.4524 91.0784C13.4263 86.3248 16.3196 82.0057 19.967 78.3675L13.9831 72.3987Z" fill="#FC3939" fill-opacity="0.6"/>
</svg>
