<?xml version="1.0" standalone="no"?>
<!DOCTYPE svg PUBLIC "-//W3C//DTD SVG 20010904//EN"
 "http://www.w3.org/TR/2001/REC-SVG-20010904/DTD/svg10.dtd">
<svg version="1.0" xmlns="http://www.w3.org/2000/svg"
 width="264.000000pt" height="264.000000pt" viewBox="0 0 264.000000 264.000000"
 preserveAspectRatio="xMidYMid meet">
<metadata>
Created by potrace 1.11, written by Peter Selinger 2001-2013
</metadata>
<g transform="translate(0.000000,264.000000) scale(0.100000,-0.100000)"
fill="#000000" stroke="none">
<path d="M1236 2633 c-1 -2 -18 -5 -37 -7 -47 -4 -70 -16 -62 -30 4 -6 -1 -5
-10 3 -9 7 -17 9 -17 4 0 -5 -10 -9 -22 -10 -11 -1 -25 -8 -29 -15 -5 -7 -9
-9 -9 -5 0 4 -9 3 -20 -3 -11 -6 -18 -15 -15 -20 3 -6 -1 -7 -9 -4 -10 4 -16
1 -16 -7 0 -7 -3 -9 -7 -6 -3 4 -17 -5 -30 -19 -12 -14 -23 -21 -23 -17 0 4
-7 0 -15 -11 -17 -22 -4 -56 21 -56 8 0 13 -4 10 -9 -3 -5 1 -12 10 -15 10 -4
30 5 53 24 63 52 67 55 82 58 7 2 16 7 19 11 3 4 16 8 29 8 13 1 28 8 32 15 5
7 9 9 9 4 0 -5 10 -1 22 10 12 10 18 14 15 8 -5 -8 9 -11 47 -10 30 0 52 4 49
9 -2 4 1 7 6 7 6 0 11 -6 11 -12 0 -9 4 -8 10 2 5 8 10 10 10 3 0 -6 8 -10 18
-8 9 1 23 -2 30 -8 8 -6 12 -6 12 3 0 9 3 10 13 1 8 -6 17 -8 20 -4 4 3 7 2 7
-4 0 -5 19 -16 43 -24 23 -7 51 -21 61 -31 11 -10 26 -18 33 -18 7 0 13 -3 13
-7 0 -5 12 -16 25 -26 24 -17 25 -17 60 14 l36 32 -32 33 c-18 19 -38 34 -45
34 -7 0 -20 7 -28 16 -9 8 -16 13 -16 9 0 -4 -7 1 -16 10 -9 9 -23 14 -31 11
-8 -3 -12 -2 -9 3 3 5 -1 11 -8 14 -16 6 -16 -28 -1 -53 7 -13 6 -13 -7 -2
-10 8 -14 20 -11 29 4 10 2 14 -4 10 -7 -5 -9 0 -6 13 3 12 0 20 -6 20 -7 0
-9 -6 -6 -12 4 -7 0 -5 -9 5 -10 13 -21 17 -37 12 -12 -4 -24 -2 -28 4 -10 15
-71 21 -71 7 0 -8 -2 -8 -8 0 -6 9 -97 16 -106 7z m11 -15 c-2 -7 -1 -20 4
-28 5 -11 2 -16 -11 -16 -10 0 -16 5 -12 11 7 10 8 15 11 35 0 6 4 10 7 10 3
0 4 -6 1 -12z m142 -12 c9 -10 8 -15 -2 -19 -8 -3 -13 3 -13 14 0 23 0 23 15
5z m-220 -32 c-6 -7 -7 -19 -3 -26 6 -11 5 -11 -8 0 -13 10 -17 10 -21 0 -3
-7 -4 -3 -4 8 1 15 6 20 16 16 8 -3 12 -1 8 5 -3 5 0 10 8 10 11 0 12 -4 4
-13z m123 9 c-10 -4 -10 -8 0 -21 12 -15 11 -16 -4 -3 -19 14 -15 32 5 30 8 0
8 -2 -1 -6z m-186 -24 c0 -11 -6 -15 -15 -11 -8 3 -12 1 -8 -5 3 -5 0 -10 -8
-10 -11 0 -12 4 -4 13 6 7 8 17 6 21 -3 5 2 9 12 9 9 0 17 -8 17 -17z m278 3
c3 -5 -1 -9 -9 -9 -8 0 -12 4 -9 9 3 4 7 8 9 8 2 0 6 -4 9 -8z m73 -18 c-3 -3
-12 -4 -19 -1 -8 3 -5 6 6 6 11 1 17 -2 13 -5z m-440 -25 c-9 -6 -15 -14 -12
-20 4 -5 1 -9 -4 -9 -6 0 -11 4 -11 8 0 12 22 32 35 32 5 0 2 -5 -8 -11z m547
3 c3 -5 -1 -9 -9 -9 -8 0 -12 4 -9 9 3 4 7 8 9 8 2 0 6 -4 9 -8z m97 -35 c-10
-9 -11 -8 -5 6 3 10 9 15 12 12 3 -3 0 -11 -7 -18z m-78 5 c3 7 4 3 4 -8 -1
-24 -22 -22 -31 3 -5 13 -4 14 8 4 11 -9 15 -9 19 1z m-592 -35 c-10 -9 -11
-8 -5 6 3 10 9 15 12 12 3 -3 0 -11 -7 -18z m-26 4 c3 -5 2 -12 -3 -15 -5 -3
-9 1 -9 9 0 17 3 19 12 6z m716 -14 c-14 -18 -63 -15 -69 3 -2 9 0 11 5 5 11
-15 55 -13 61 3 2 7 7 11 9 8 3 -3 1 -12 -6 -19z"/>
<path d="M1170 2434 c-30 -8 -63 -16 -72 -18 -45 -11 -164 -81 -220 -128 l-27
-23 38 -42 37 -42 55 41 c47 36 107 68 174 93 34 13 67 17 161 17 126 1 231
-37 330 -118 l41 -33 39 40 39 40 -33 30 c-17 16 -32 28 -32 25 0 -4 -9 3 -20
14 -34 34 -147 85 -235 106 -56 13 -219 12 -275 -2z"/>
<path d="M1257 2134 c-1 -1 -32 -4 -68 -8 -241 -22 -473 -184 -567 -396 -63
-142 -81 -242 -77 -425 3 -162 6 -186 40 -292 72 -224 227 -385 443 -458 163
-55 375 -55 537 0 233 80 411 282 441 501 6 43 5 44 -23 45 -15 0 -112 2 -215
3 l-187 1 -21 -56 c-33 -92 -100 -143 -207 -157 -246 -33 -387 145 -370 466 3
59 8 119 12 135 12 57 54 136 96 179 108 112 311 118 413 13 38 -38 50 -63 71
-142 6 -23 7 -23 222 -23 l215 0 -6 48 c-43 305 -271 521 -589 558 -48 6 -156
11 -160 8z"/>
<path d="M374 1758 c-113 -128 -164 -271 -159 -440 1 -57 5 -114 8 -127 25
-100 84 -217 143 -285 l31 -36 42 42 c23 22 38 44 33 47 -11 8 -92 118 -92
127 0 3 -7 20 -15 38 -24 49 -42 153 -39 220 2 53 5 78 17 131 10 46 75 162
114 205 l23 24 -37 38 c-20 21 -40 38 -43 38 -4 0 -15 -10 -26 -22z"/>
<path d="M2201 1710 c-19 -20 -34 -40 -34 -44 1 -4 13 -21 27 -36 48 -54 86
-133 112 -232 1 -5 2 -22 3 -39 1 -20 5 -28 13 -23 7 5 8 3 3 -6 -5 -7 -10
-41 -11 -74 -6 -110 -58 -238 -130 -316 l-24 -26 41 -41 40 -42 30 33 c59 68
125 197 145 283 11 51 13 217 3 268 -11 52 -12 55 -50 145 -23 55 -105 176
-124 183 -5 2 -25 -13 -44 -33z"/>
<path d="M148 1691 c-18 -25 -32 -49 -30 -53 1 -5 -3 -8 -9 -8 -6 0 -8 -7 -5
-16 3 -8 2 -12 -4 -9 -5 3 -14 -4 -20 -15 -6 -11 -8 -20 -4 -20 3 0 2 -6 -3
-12 -38 -47 -60 -222 -42 -325 6 -35 14 -61 19 -58 4 2 6 -6 4 -18 -2 -12 11
-51 29 -87 26 -53 36 -65 57 -66 14 0 30 3 36 8 6 4 11 2 11 -7 0 -8 -5 -11
-10 -8 -7 4 -8 -1 -4 -13 6 -17 6 -18 -6 -2 -8 10 -18 13 -26 9 -9 -6 -6 -14
15 -30 14 -11 23 -21 18 -21 -12 0 18 -20 30 -20 5 0 7 3 3 6 -3 3 9 19 26 34
l32 29 -21 20 c-12 11 -25 17 -28 14 -3 -4 -6 0 -6 8 0 20 -23 69 -32 69 -5 0
-8 7 -8 15 0 8 -5 15 -12 15 -6 0 -9 3 -5 6 3 3 1 18 -5 33 -5 14 -12 35 -14
45 -2 11 -9 23 -16 28 -10 6 -10 8 0 8 15 0 16 32 0 48 -7 7 -8 12 -3 12 6 0
10 21 11 48 1 42 9 103 14 110 2 1 4 7 5 12 1 6 4 13 5 18 1 4 2 11 1 16 -1 4
6 14 15 21 11 7 15 19 11 29 -4 10 -3 15 3 11 6 -3 10 -2 10 2 0 5 16 26 35
48 36 42 46 71 20 61 -8 -3 -14 0 -12 7 1 7 -4 11 -12 9 -8 -2 -11 3 -8 12 3
8 -2 16 -13 19 -13 3 -28 -8 -52 -42z m45 -5 c6 -15 -17 -16 -30 -1 -4 4 -2 5
5 1 6 -4 12 -2 12 3 0 15 7 14 13 -3z m-49 -41 c-4 -8 -11 -12 -16 -9 -6 4 -5
10 3 15 19 12 19 11 13 -6z m48 1 c7 4 8 2 4 -5 -9 -13 -26 -5 -25 12 0 9 2 8
6 -1 2 -6 10 -9 15 -6z m38 0 c0 -3 -4 -8 -10 -11 -5 -3 -10 -1 -10 4 0 6 5
11 10 11 6 0 10 -2 10 -4z m-56 -44 c2 -4 -4 -8 -14 -8 -10 0 -16 4 -14 8 3 4
9 8 14 8 5 0 11 -4 14 -8z m-28 -41 c0 -12 -4 -17 -11 -12 -5 5 -18 7 -27 6
-10 -2 -18 1 -18 7 0 6 6 8 13 5 8 -3 20 -1 28 4 8 5 14 9 14 9 1 0 1 -9 1
-19z m-62 -39 c3 -5 -1 -9 -9 -9 -8 0 -12 4 -9 9 3 4 7 8 9 8 2 0 6 -4 9 -8z
m39 -35 c4 3 7 2 7 -4 0 -6 -8 -13 -18 -15 -12 -4 -18 1 -18 13 0 12 4 15 12
9 6 -6 14 -7 17 -3z m-20 -51 c4 -10 1 -13 -8 -9 -8 3 -12 9 -9 14 7 12 11 11
17 -5z m-16 -101 c0 -7 -8 -17 -17 -23 -12 -7 -17 -7 -17 4 0 7 5 10 10 7 6
-4 8 0 5 9 -4 8 -1 15 6 15 7 0 13 -6 13 -12z m-43 -41 c3 -8 2 -12 -4 -9 -6
3 -10 10 -10 16 0 14 7 11 14 -7z m20 -49 c-4 -8 -11 -12 -16 -9 -6 4 -5 10 3
15 19 12 19 11 13 -6z m26 -39 c0 -3 -4 -8 -10 -11 -5 -3 -10 -1 -10 4 0 6 5
11 10 11 6 0 10 -2 10 -4z m31 -39 c-10 -9 -11 -8 -5 6 3 10 9 15 12 12 3 -3
0 -11 -7 -18z m-31 -41 c0 -3 -4 -8 -10 -11 -5 -3 -10 -1 -10 4 0 6 5 11 10
11 6 0 10 -2 10 -4z m56 -45 c0 -14 -4 -17 -12 -11 -6 6 -14 7 -17 3 -4 -3 -7
-1 -7 5 0 6 8 13 18 15 9 3 17 5 17 6 1 0 1 -8 1 -18z"/>
<path d="M2420 1681 c-43 -49 -43 -49 -16 -76 14 -14 23 -25 21 -25 -2 0 7
-16 20 -36 14 -20 25 -41 25 -46 0 -5 4 -6 10 -3 6 3 7 -1 4 -9 -3 -9 -1 -16
6 -16 6 0 9 -4 6 -9 -8 -12 16 -125 28 -133 6 -4 14 -2 19 5 6 8 7 8 4 -3 -2
-8 -9 -15 -15 -15 -5 0 -14 -3 -18 -7 -4 -5 -2 -8 6 -8 10 0 10 -3 0 -15 -10
-12 -10 -15 0 -15 10 0 10 -3 0 -15 -7 -9 -10 -18 -7 -21 3 -3 -3 -34 -13 -70
-10 -35 -16 -64 -12 -64 4 0 -1 -5 -10 -11 -10 -5 -18 -14 -18 -19 0 -5 8 -7
18 -4 10 3 9 0 -5 -8 -12 -7 -21 -15 -20 -19 1 -3 -15 -23 -35 -45 -39 -40
-50 -71 -22 -60 8 3 13 2 10 -3 -3 -4 2 -15 12 -24 19 -17 36 -25 38 -17 1 3
18 22 38 44 29 30 34 41 25 52 -9 12 -9 13 4 9 8 -4 18 -2 22 4 3 6 1 11 -4
11 -6 0 -11 5 -11 10 0 6 6 9 13 8 6 -2 11 5 11 14 -1 10 2 16 6 13 11 -7 20
8 22 39 1 14 6 26 11 26 5 0 7 13 5 29 -2 17 -1 28 4 25 10 -6 11 10 1 19 -3
4 -11 2 -18 -3 -8 -7 -12 -5 -12 5 0 8 3 12 7 10 4 -3 14 3 23 13 19 22 16
184 -5 209 -7 9 -12 18 -10 20 7 10 0 23 -10 17 -10 -5 -10 -4 -1 6 14 15 6
43 -10 33 -5 -3 -7 -1 -3 5 5 8 -8 52 -21 71 -2 2 -13 -4 -25 -15 -23 -19 -23
-19 -5 2 9 11 17 24 17 28 0 18 -42 66 -52 60 -7 -4 -8 -2 -4 4 4 7 2 12 -4
12 -6 0 -9 4 -6 9 3 5 -1 12 -10 15 -19 7 -16 8 -34 -13z m25 -38 c0 -15 -6
-28 -13 -29 -7 -1 -8 0 -3 2 5 3 7 16 5 30 -2 13 0 24 4 24 5 0 8 -12 7 -27z
m49 -28 c-4 -8 -11 -15 -16 -15 -6 0 -5 6 2 15 7 8 14 15 16 15 2 0 1 -7 -2
-15z m-42 -32 c-6 -2 -9 -10 -6 -15 4 -7 2 -8 -5 -4 -13 9 -5 26 12 25 9 0 8
-2 -1 -6z m43 -3 c3 -6 -1 -7 -9 -4 -18 7 -21 14 -7 14 6 0 13 -4 16 -10z m29
-42 c-5 -7 -2 -9 7 -6 10 4 15 -1 15 -13 0 -14 -3 -16 -15 -6 -12 10 -14 9 -9
-4 4 -9 1 -16 -7 -16 -10 0 -11 5 -4 19 5 10 7 18 4 18 -4 0 -3 5 0 10 3 6 8
10 11 10 3 0 2 -5 -2 -12z m46 -52 c0 -3 -4 -8 -10 -11 -5 -3 -10 -1 -10 4 0
6 5 11 10 11 6 0 10 -2 10 -4z m-1 -39 c8 -10 7 -14 -2 -14 -8 0 -14 6 -14 14
0 7 1 13 2 13 2 0 8 -6 14 -13z m23 -41 c7 4 8 2 4 -5 -9 -13 -26 -5 -25 12 0
9 2 8 6 -1 2 -6 10 -9 15 -6z m-48 -12 c3 -7 -2 -10 -15 -7 -22 6 -26 20 -4
20 8 0 16 -6 19 -13z m56 -38 c0 -2 -7 -7 -16 -10 -8 -3 -12 -2 -9 4 6 10 25
14 25 6z m-33 -66 c-1 -11 -5 -20 -9 -20 -3 0 -6 9 -5 20 1 11 5 20 9 20 3 0
6 -9 5 -20z m-21 -49 c0 -11 -5 -17 -13 -14 -10 4 -11 9 -2 19 15 18 15 18 15
-5z m58 -3 c-3 -5 -10 -6 -15 -3 -5 4 -9 1 -9 -6 0 -7 -3 -10 -6 -6 -9 9 3 24
20 24 8 0 13 -4 10 -9z m-34 -78 c0 -5 -4 -10 -10 -10 -5 0 -10 5 -10 10 0 6
5 10 10 10 6 0 10 -4 10 -10z m-48 -32 c-2 -10 -6 -18 -7 -18 -1 0 -5 8 -7 18
-3 11 0 19 7 19 7 0 10 -8 7 -19z m21 -3 c-3 -9 -8 -14 -10 -11 -3 3 -2 9 2
15 9 16 15 13 8 -4z m-16 -31 c-3 -3 -12 -4 -19 -1 -8 3 -5 6 6 6 11 1 17 -2
13 -5z m38 -14 c3 -5 1 -10 -4 -10 -6 0 -11 5 -11 10 0 6 2 10 4 10 3 0 8 -4
11 -10z m-38 -16 c-3 -3 -12 -4 -19 -1 -8 3 -5 6 6 6 11 1 17 -2 13 -5z m-34
-34 c3 -11 1 -18 -4 -14 -5 3 -9 12 -9 20 0 20 7 17 13 -6z m-46 -27 c-4 -3
-3 -11 3 -17 6 -8 3 -12 -10 -12 -15 0 -16 4 -9 18 5 10 13 18 16 18 3 0 3 -3
0 -7z m37 -41 c3 -5 -1 -9 -9 -9 -8 0 -12 4 -9 9 3 4 7 8 9 8 2 0 6 -4 9 -8z"/>
<path d="M886 420 l-39 -40 27 -21 c14 -11 33 -27 41 -35 8 -9 24 -16 34 -17
11 0 18 -5 15 -9 -6 -9 91 -59 100 -51 3 4 6 2 6 -3 0 -20 143 -49 240 -48 96
0 235 28 224 45 -3 5 1 6 9 3 18 -6 103 40 173 95 l53 42 -39 39 c-22 22 -42
40 -45 40 -3 0 -18 -12 -34 -27 -36 -35 -144 -91 -211 -110 -8 -3 -59 -7 -112
-10 -140 -7 -245 26 -355 114 -23 18 -43 33 -45 33 -2 0 -20 -18 -42 -40z"/>
<path d="M933 215 c-31 -36 -36 -79 -7 -54 12 9 13 9 9 -4 -10 -25 112 -106
137 -91 7 4 8 3 4 -4 -4 -7 -1 -13 8 -13 24 -2 29 -4 55 -18 20 -11 22 -11 15
1 -6 11 -5 11 8 0 19 -16 52 -22 130 -26 49 -2 58 0 53 12 -4 12 -3 13 9 3 18
-15 64 -8 163 24 29 10 50 21 47 26 -3 5 2 6 10 3 9 -3 16 -1 16 6 0 6 5 8 10
5 6 -3 10 -2 10 3 0 5 10 14 23 19 12 6 37 23 55 38 24 21 29 31 21 41 -6 7
-16 12 -22 10 -7 -1 -9 -1 -4 1 14 9 7 25 -9 19 -8 -3 -13 -2 -11 2 3 4 -2 13
-10 21 -12 11 -15 10 -20 -8 -3 -11 -10 -18 -16 -14 -6 4 -8 0 -4 -11 4 -10 3
-15 -3 -11 -15 9 -52 -15 -46 -30 3 -8 0 -17 -6 -21 -6 -4 -8 -3 -4 4 11 19
-12 23 -37 7 -31 -20 -126 -49 -155 -47 -13 1 -21 -2 -18 -6 2 -4 0 -14 -6
-22 -8 -12 -9 -12 -4 3 7 22 -22 36 -35 16 -5 -8 -9 -9 -9 -3 0 6 -8 11 -17
11 -10 -1 -45 5 -78 13 -33 7 -66 13 -74 11 -7 -1 -10 2 -6 8 3 6 -1 11 -10
11 -10 0 -13 -5 -9 -12 4 -7 3 -8 -5 -4 -6 4 -9 11 -6 16 3 4 -16 21 -42 36
-26 15 -55 36 -63 47 -15 18 -17 18 -47 -18z m53 -17 c5 -7 3 -8 -6 -3 -9 6
-12 4 -8 -7 4 -8 0 -15 -8 -15 -7 0 -10 5 -7 10 4 6 0 8 -10 4 -10 -3 -17 -4
-17 -1 0 3 25 16 47 23 1 1 5 -4 9 -11z m665 -21 c-13 -13 -2 -39 13 -30 6 3
7 2 3 -2 -15 -17 -36 -14 -29 3 5 14 3 15 -9 5 -12 -10 -15 -8 -15 6 0 12 5
17 15 13 8 -3 12 -1 8 5 -3 5 1 10 9 10 9 0 11 -4 5 -10z m-621 -17 c0 -5 -4
-10 -10 -10 -5 0 -10 5 -10 10 0 6 5 10 10 10 6 0 10 -4 10 -10z m-57 -25 c-3
-9 -8 -14 -10 -11 -3 3 -2 9 2 15 9 16 15 13 8 -4z m72 -25 c-10 -11 -22 -20
-28 -20 -5 0 1 9 14 20 31 25 37 25 14 0z m525 14 c0 -8 -19 -13 -24 -6 -3 5
1 9 9 9 8 0 15 -2 15 -3z m31 -17 c-10 -9 -11 -8 -5 6 3 10 9 15 12 12 3 -3 0
-11 -7 -18z m-518 -10 c-4 -6 0 -8 9 -5 9 4 15 0 15 -8 0 -19 -11 -18 -30 4
-14 15 -15 19 -2 19 8 0 11 -5 8 -10z m115 -12 c-3 -3 -9 2 -12 12 -6 14 -5
15 5 6 7 -7 10 -15 7 -18z m25 0 c-7 -21 -12 -19 -10 4 0 11 5 18 9 15 4 -3 5
-11 1 -19z m220 12 c-4 -6 0 -8 10 -4 11 4 14 2 10 -9 -5 -13 -8 -13 -23 1 -9
8 -20 12 -25 8 -4 -5 -5 -3 -2 3 3 6 13 11 21 11 8 0 12 -5 9 -10z m80 -11
c-10 -12 -18 -22 -19 -24 -1 -1 -4 6 -7 17 -3 15 -1 18 11 14 9 -4 13 -2 9 4
-3 5 0 10 8 10 12 0 12 -4 -2 -21z m-259 -12 c3 -8 2 -12 -4 -9 -6 3 -10 10
-10 16 0 14 7 11 14 -7z m125 -7 c0 -8 -2 -8 -6 1 -4 10 -8 10 -21 0 -15 -12
-16 -11 -3 4 14 19 32 15 30 -5z m-219 -8 c0 -5 -4 -9 -8 -9 -5 0 -9 7 -9 15
0 8 4 12 9 9 4 -3 8 -9 8 -15z m73 8 c3 -8 -1 -14 -8 -14 -7 0 -11 6 -8 14 3
7 6 13 8 13 2 0 5 -6 8 -13z m244 -2 c0 -8 -4 -12 -9 -9 -5 3 -6 10 -3 15 9
13 12 11 12 -6z m-204 -20 c-3 -9 -8 -14 -10 -11 -3 3 -2 9 2 15 9 16 15 13 8
-4z m44 -10 c0 -6 -8 -11 -18 -11 -9 0 -15 5 -12 11 5 15 30 15 30 0z m118 6
c-9 -8 -36 -10 -30 -2 2 4 11 8 20 8 8 0 13 -3 10 -6z"/>
</g>
</svg>
